<svg width="24" height="22" viewBox="0 0 24 22" fill="none" xmlns="http://www.w3.org/2000/svg">
<path d="M3 0.5C1.34531 0.5 0 1.84531 0 3.5V18.5C0 20.1547 1.34531 21.5 3 21.5H21C22.6547 21.5 24 20.1547 24 18.5V3.5C24 1.84531 22.6547 0.5 21 0.5H3ZM7.125 3.5V6.5H3V3.5H7.125ZM9.75 3.5H13.875V6.5H9.75V3.5ZM21 3.5V6.5H16.875V3.5H21ZM3 9.5H7.125V12.5H3V9.5ZM13.875 9.5V12.5H9.75V9.5H13.875ZM16.875 9.5H21V12.5H16.875V9.5ZM7.125 15.5V18.5H3V15.5H7.125ZM9.75 15.5H13.875V18.5H9.75V15.5ZM21 15.5V18.5H16.875V15.5H21Z" fill="#525252"/>
</svg>
