<svg width="14" height="16" viewBox="0 0 14 16" fill="none" xmlns="http://www.w3.org/2000/svg">
<path d="M7.75 1.5V8H9.25V1.83438C9.99687 2.26562 10.5 3.075 10.5 4V8H12V4C12 1.79063 10.2094 0 8 0H6C3.79063 0 2 1.79063 2 4V8H3.5V4C3.5 3.075 4.00313 2.26562 4.75 1.83438V8H6.25V1.5H7.75ZM1.5 9C1.12188 9 0.775 9.2125 0.60625 9.55313L0.10625 10.5531C-0.0499999 10.8625 -0.0312499 11.2312 0.15 11.525C0.33125 11.8187 0.653125 12 1 12V15C1 15.5531 1.44688 16 2 16C2.55313 16 3 15.5531 3 15V12H11V15C11 15.5531 11.4469 16 12 16C12.5531 16 13 15.5531 13 15V12C13.3469 12 13.6688 11.8219 13.85 11.525C14.0312 11.2281 14.05 10.8625 13.8938 10.5531L13.3938 9.55313C13.225 9.2125 12.8781 9 12.5 9H1.5Z" fill="#404040"/>
</svg>
