<svg width="10" height="14" viewBox="0 0 10 14" fill="none" xmlns="http://www.w3.org/2000/svg">
<path d="M0 0.725V12.3125C0 12.6938 0.309375 13 0.6875 13C0.884375 13 1.075 12.9156 1.20625 12.7656L3.7875 9.8125L5.60313 13.4469C5.85 13.9406 6.45 14.1406 6.94375 13.8938C7.4375 13.6469 7.6375 13.0469 7.39062 12.5531L5.61875 9H9.30937C9.69063 9 10 8.69063 10 8.30937C10 8.1125 9.91563 7.925 9.76875 7.79375L1.20625 0.184375C1.07187 0.065625 0.903125 0 0.725 0C0.325 0 0 0.325 0 0.725Z" fill="#404040"/>
</svg>
