<svg width="14" height="14" viewBox="0 0 14 14" fill="none" xmlns="http://www.w3.org/2000/svg">
<path d="M11.5 1.5H12.5V2.5H11.5V1.5ZM11 0C10.4469 0 10 0.446875 10 1H4C4 0.446875 3.55313 0 3 0H1C0.446875 0 0 0.446875 0 1V3C0 3.55313 0.446875 4 1 4V10C0.446875 10 0 10.4469 0 11V13C0 13.5531 0.446875 14 1 14H3C3.55313 14 4 13.5531 4 13H10C10 13.5531 10.4469 14 11 14H13C13.5531 14 14 13.5531 14 13V11C14 10.4469 13.5531 10 13 10V4C13.5531 4 14 3.55313 14 3V1C14 0.446875 13.5531 0 13 0H11ZM3 4C3.55313 4 4 3.55313 4 3H10C10 3.55313 10.4469 4 11 4V10C10.4469 10 10 10.4469 10 11H4C4 10.4469 3.55313 10 3 10V4ZM1.5 11.5H2.5V12.5H1.5V11.5ZM11.5 12.5V11.5H12.5V12.5H11.5ZM1.5 2.5V1.5H2.5V2.5H1.5Z" fill="#404040"/>
</svg>
