<svg width="24" height="24" viewBox="0 0 24 24" fill="none" xmlns="http://www.w3.org/2000/svg">
<path d="M24 24H0V0H24V24Z" stroke="#E5E7EB"/>
<path d="M3 1.5C1.34531 1.5 0 2.84531 0 4.5V19.5C0 21.1547 1.34531 22.5 3 22.5H21C22.6547 22.5 24 21.1547 24 19.5V4.5C24 2.84531 22.6547 1.5 21 1.5H3ZM7.125 4.5V7.5H3V4.5H7.125ZM9.75 4.5H13.875V7.5H9.75V4.5ZM21 4.5V7.5H16.875V4.5H21ZM3 10.5H7.125V13.5H3V10.5ZM13.875 10.5V13.5H9.75V10.5H13.875ZM16.875 10.5H21V13.5H16.875V10.5ZM7.125 16.5V19.5H3V16.5H7.125ZM9.75 16.5H13.875V19.5H9.75V16.5ZM21 16.5V19.5H16.875V16.5H21Z" fill="#525252"/>
</svg>
